<svg width="31" height="31" viewBox="0 0 31 31" fill="none" xmlns="http://www.w3.org/2000/svg">
<path d="M15.3999 6.1377C16.2624 6.1377 16.9624 6.8377 16.9624 7.7002V13.6377H22.8999C23.3143 13.6377 23.7117 13.8023 24.0048 14.0953C24.2978 14.3884 24.4624 14.7858 24.4624 15.2002C24.4624 15.6146 24.2978 16.012 24.0048 16.305C23.7117 16.5981 23.3143 16.7627 22.8999 16.7627H16.9624V22.7002C16.9624 23.1146 16.7978 23.512 16.5048 23.8051C16.2117 24.0981 15.8143 24.2627 15.3999 24.2627C14.9855 24.2627 14.5881 24.0981 14.295 23.8051C14.002 23.512 13.8374 23.1146 13.8374 22.7002V16.7627H7.8999C7.4855 16.7627 7.08807 16.5981 6.79505 16.305C6.50202 16.012 6.3374 15.6146 6.3374 15.2002C6.3374 14.7858 6.50202 14.3884 6.79505 14.0953C7.08807 13.8023 7.4855 13.6377 7.8999 13.6377H13.8374V7.7002C13.8374 6.8377 14.5374 6.1377 15.3999 6.1377Z" fill="white"/>
</svg>
