<svg width="30" height="30" viewBox="0 0 30 30" fill="none" xmlns="http://www.w3.org/2000/svg">
<g clip-path="url(#clip0_176_1098)">
<path fill-rule="evenodd" clip-rule="evenodd" d="M13.3551 14.01C14.1721 13.8712 14.9005 13.4136 15.3801 12.7378C15.8598 12.0619 16.0513 11.2233 15.9126 10.4063L14.6676 3.07003C14.5989 2.66537 14.4511 2.27821 14.2328 1.93066C14.0144 1.58312 13.7297 1.282 13.3949 1.04451C13.0601 0.807011 12.6819 0.637791 12.2817 0.546513C11.8815 0.455235 11.4673 0.443686 11.0626 0.512527L3.43263 1.80878C2.61563 1.94759 1.88722 2.40523 1.40761 3.08104C0.927997 3.75686 0.736461 4.5955 0.875127 5.41253L2.12013 12.7488C2.18885 13.1534 2.33662 13.5406 2.555 13.8881C2.77337 14.2357 3.05808 14.5368 3.39284 14.7743C3.72761 15.0118 4.10589 15.181 4.50607 15.2723C4.90624 15.3636 5.32048 15.3751 5.72513 15.3063L13.3551 14.01ZM6.85013 7.91003C6.85013 7.50027 7.0129 7.10729 7.30265 6.81755C7.59239 6.5278 7.98537 6.36503 8.39513 6.36503C8.80489 6.36503 9.19786 6.5278 9.48761 6.81755C9.77735 7.10729 9.94013 7.50027 9.94013 7.91003C9.94013 8.31979 9.77735 8.71276 9.48761 9.00251C9.19786 9.29225 8.80489 9.45503 8.39513 9.45503C7.98537 9.45503 7.59239 9.29225 7.30265 9.00251C7.0129 8.71276 6.85013 8.31979 6.85013 7.91003ZM25.2214 27.9038C24.8242 28.6311 24.1543 29.1708 23.3592 29.4043C22.5641 29.6378 21.7087 29.5459 20.9814 29.1488L14.1889 25.4388C13.4616 25.0416 12.9218 24.3717 12.6884 23.5766C12.4549 22.7815 12.5468 21.9261 12.9439 21.1988L16.5101 14.6688C16.9073 13.9415 17.5772 13.4017 18.3723 13.1683C19.1674 12.9348 20.0228 13.0267 20.7501 13.4238L27.5439 17.1338C28.271 17.5312 28.8104 18.2011 29.0437 18.9962C29.2769 19.7914 29.1848 20.6466 28.7876 21.3738L25.2214 27.9038ZM19.9589 17.0963C19.5491 17.0963 19.1561 17.2591 18.8664 17.5488C18.5767 17.8385 18.4139 18.2315 18.4139 18.6413C18.4139 19.051 18.5767 19.444 18.8664 19.7338C19.1561 20.0235 19.5491 20.1863 19.9589 20.1863C20.3686 20.1863 20.7616 20.0235 21.0514 19.7338C21.3411 19.444 21.5039 19.051 21.5039 18.6413C21.5039 18.2315 21.3411 17.8385 21.0514 17.5488C20.7616 17.2591 20.3686 17.0963 19.9589 17.0963ZM20.1714 23.6838C20.1714 23.274 20.3342 22.881 20.6239 22.5913C20.9136 22.3016 21.3066 22.1388 21.7164 22.1388C22.1261 22.1388 22.5191 22.3016 22.8089 22.5913C23.0986 22.881 23.2614 23.274 23.2614 23.6838C23.2614 24.0935 23.0986 24.4865 22.8089 24.7763C22.5191 25.066 22.1261 25.2288 21.7164 25.2288C21.3066 25.2288 20.9136 25.066 20.6239 24.7763C20.3342 24.4865 20.1714 24.0935 20.1714 23.6838Z" fill="white"/>
</g>
<defs>
<clipPath id="clip0_176_1098">
<rect width="30" height="30" fill="white"/>
</clipPath>
</defs>
</svg>
