<svg width="30" height="31" viewBox="0 0 30 31" fill="none" xmlns="http://www.w3.org/2000/svg">
<path d="M6 23.8834V13.3834C6 13.0139 6.08283 12.6639 6.2485 12.3334C6.41417 12.0028 6.64244 11.7306 6.93333 11.5167L13.9333 6.26672C14.3417 5.9556 14.8083 5.80005 15.3333 5.80005C15.8583 5.80005 16.325 5.9556 16.7333 6.26672L23.7333 11.5167C24.025 11.7306 24.2537 12.0028 24.4193 12.3334C24.585 12.6639 24.6674 13.0139 24.6667 13.3834V23.8834C24.6667 24.525 24.438 25.0746 23.9807 25.5319C23.5233 25.9892 22.9742 26.2175 22.3333 26.2167H18.8333C18.5028 26.2167 18.2259 26.1047 18.0027 25.8807C17.7794 25.6567 17.6674 25.3798 17.6667 25.0501V19.2167C17.6667 18.8862 17.5547 18.6093 17.3307 18.3861C17.1067 18.1628 16.8298 18.0508 16.5 18.05H14.1667C13.8361 18.05 13.5592 18.1621 13.336 18.3861C13.1128 18.6101 13.0008 18.8869 13 19.2167V25.0501C13 25.3806 12.888 25.6579 12.664 25.8819C12.44 26.1059 12.1631 26.2175 11.8333 26.2167H8.33333C7.69167 26.2167 7.14256 25.9884 6.686 25.5319C6.22944 25.0753 6.00078 24.5258 6 23.8834Z" fill="white"/>
</svg>
