<svg width="31" height="31" viewBox="0 0 31 31" fill="none" xmlns="http://www.w3.org/2000/svg">
<path fill-rule="evenodd" clip-rule="evenodd" d="M11.8502 10.8C11.8502 9.80549 12.2453 8.85166 12.9485 8.1484C13.6518 7.44514 14.6056 7.05005 15.6002 7.05005C16.5947 7.05005 17.5486 7.44514 18.2518 8.1484C18.9551 8.85166 19.3502 9.80549 19.3502 10.8H11.8502ZM9.35017 10.8C9.35017 9.14245 10.0087 7.55273 11.1808 6.38063C12.3529 5.20853 13.9426 4.55005 15.6002 4.55005C17.2578 4.55005 18.8475 5.20853 20.0196 6.38063C21.1917 7.55273 21.8502 9.14245 21.8502 10.8H25.6002C25.7738 10.8 25.9456 10.8362 26.1044 10.9062C26.2633 10.9763 26.4059 11.0787 26.523 11.2069C26.6402 11.335 26.7293 11.4862 26.7848 11.6508C26.8402 11.8153 26.8608 11.9896 26.8452 12.1625L25.8014 23.64C25.7166 24.5718 25.2866 25.4381 24.5957 26.069C23.9049 26.6999 23.0032 27.0498 22.0677 27.05H9.13267C8.19711 27.0498 7.29541 26.6999 6.60459 26.069C5.91378 25.4381 5.48374 24.5718 5.39892 23.64L4.35517 12.1625C4.33954 11.9896 4.36012 11.8153 4.41558 11.6508C4.47105 11.4862 4.56019 11.335 4.67732 11.2069C4.79445 11.0787 4.93701 10.9763 5.0959 10.9062C5.25479 10.8362 5.42653 10.8 5.60017 10.8H9.35017Z" fill="white"/>
</svg>
