<svg width="30" height="30" viewBox="0 0 30 30" fill="none" xmlns="http://www.w3.org/2000/svg">
<path d="M19.4062 21.0628C17.4941 22.6031 15.1116 23.4412 12.6562 23.4375C6.70219 23.4375 1.875 18.6103 1.875 12.6562C1.875 6.70219 6.70219 1.875 12.6562 1.875C18.6103 1.875 23.4375 6.70219 23.4375 12.6562C23.4375 15.2109 22.5487 17.5584 21.0637 19.4062L26.8453 25.1869C27.0651 25.4067 27.1886 25.7048 27.1886 26.0156C27.1886 26.3265 27.0651 26.6246 26.8453 26.8444C26.6255 27.0642 26.3274 27.1877 26.0166 27.1877C25.7057 27.1877 25.4076 27.0642 25.1878 26.8444L19.4062 21.0628ZM21.0937 12.6562C21.0937 10.4185 20.2048 8.27237 18.6225 6.69004C17.0401 5.1077 14.894 4.21875 12.6562 4.21875C10.4185 4.21875 8.27237 5.1077 6.69004 6.69004C5.1077 8.27237 4.21875 10.4185 4.21875 12.6562C4.21875 14.894 5.1077 17.0401 6.69004 18.6225C8.27237 20.2048 10.4185 21.0938 12.6562 21.0938C14.894 21.0938 17.0401 20.2048 18.6225 18.6225C20.2048 17.0401 21.0937 14.894 21.0937 12.6562Z" fill="white"/>
</svg>
