<svg width="31" height="31" viewBox="0 0 31 31" fill="none" xmlns="http://www.w3.org/2000/svg">
<g clip-path="url(#clip0_98_4965)">
<path d="M9.30713 5.2644V6.5144C9.30713 7.17745 9.57052 7.81333 10.0394 8.28217C10.5082 8.75101 11.1441 9.0144 11.8071 9.0144H19.3071C19.9702 9.0144 20.6061 8.75101 21.0749 8.28217C21.5437 7.81333 21.8071 7.17745 21.8071 6.5144V5.2644H23.0571C23.7202 5.2644 24.3561 5.5278 24.8249 5.99664C25.2937 6.46548 25.5571 7.10136 25.5571 7.7644V21.5144C25.5571 23.5035 24.767 25.4112 23.3604 26.8177C21.9539 28.2242 20.0463 29.0144 18.0571 29.0144H8.05713C7.39409 29.0144 6.7582 28.751 6.28936 28.2822C5.82052 27.8133 5.55713 27.1774 5.55713 26.5144V7.7644C5.55713 7.10136 5.82052 6.46548 6.28936 5.99664C6.7582 5.5278 7.39409 5.2644 8.05713 5.2644H9.30713ZM15.5571 19.0144H11.8071C11.4756 19.0144 11.1577 19.1461 10.9232 19.3805C10.6888 19.6149 10.5571 19.9329 10.5571 20.2644C10.5571 20.5959 10.6888 20.9139 10.9232 21.1483C11.1577 21.3827 11.4756 21.5144 11.8071 21.5144H15.5571C15.8886 21.5144 16.2066 21.3827 16.441 21.1483C16.6754 20.9139 16.8071 20.5959 16.8071 20.2644C16.8071 19.9329 16.6754 19.6149 16.441 19.3805C16.2066 19.1461 15.8886 19.0144 15.5571 19.0144ZM19.3071 14.0144H11.8071C11.4885 14.0148 11.1821 14.1368 10.9504 14.3555C10.7187 14.5742 10.5793 14.8731 10.5607 15.1911C10.542 15.5092 10.6455 15.8224 10.85 16.0667C11.0544 16.311 11.3445 16.468 11.6609 16.5057L11.8071 16.5144H19.3071C19.6386 16.5144 19.9566 16.3827 20.191 16.1483C20.4254 15.9139 20.5571 15.5959 20.5571 15.2644C20.5571 14.9329 20.4254 14.6149 20.191 14.3805C19.9566 14.1461 19.6386 14.0144 19.3071 14.0144ZM18.0571 4.0144C18.3757 4.01476 18.6822 4.13675 18.9138 4.35546C19.1455 4.57418 19.2849 4.8731 19.3036 5.19115C19.3223 5.5092 19.2188 5.82238 19.0143 6.06669C18.8098 6.31101 18.5197 6.46802 18.2034 6.50565L18.0571 6.5144H13.0571C12.7385 6.51405 12.4321 6.39206 12.2004 6.17334C11.9687 5.95463 11.8293 5.65571 11.8107 5.33766C11.792 5.01961 11.8955 4.70643 12.1 4.46211C12.3044 4.2178 12.5945 4.06078 12.9109 4.02315L13.0571 4.0144H18.0571Z" fill="white"/>
</g>
<defs>
<clipPath id="clip0_98_4965">
<rect width="30" height="30" fill="white" transform="translate(0.199951 0.800049)"/>
</clipPath>
</defs>
</svg>
