<svg width="31" height="30" viewBox="0 0 31 30" fill="none" xmlns="http://www.w3.org/2000/svg">
<path d="M6.12505 16.9316L21.8395 16.9316L17.0298 22.7934C16.8049 23.068 16.6967 23.4219 16.729 23.7774C16.7613 24.133 16.9314 24.4609 17.202 24.6891C17.4726 24.9173 17.8215 25.0271 18.1718 24.9943C18.5222 24.9615 18.8454 24.7889 19.0703 24.5143L25.6953 16.4476C25.7398 16.3834 25.7797 16.316 25.8145 16.2459C25.8145 16.1787 25.8145 16.1383 25.9073 16.0711C25.9673 15.917 25.9988 15.7529 26 15.5871C25.9988 15.4214 25.9673 15.2573 25.9073 15.1031C25.9073 15.0359 25.9073 14.9956 25.8145 14.9283C25.7797 14.8582 25.7398 14.7908 25.6953 14.7267L19.0703 6.65993C18.9457 6.50816 18.7897 6.38611 18.6133 6.30246C18.437 6.21881 18.2447 6.1756 18.05 6.17592C17.7404 6.17531 17.4404 6.28472 17.202 6.48515C17.0679 6.59801 16.957 6.73663 16.8757 6.89305C16.7944 7.04948 16.7443 7.22064 16.7283 7.39673C16.7123 7.57282 16.7307 7.75039 16.7824 7.91925C16.8341 8.08812 16.9182 8.24498 17.0298 8.38083L21.8395 14.2427L6.12505 14.2427C5.77364 14.2427 5.43662 14.3843 5.18813 14.6364C4.93965 14.8886 4.80005 15.2305 4.80005 15.5871C4.80005 15.9437 4.93965 16.2857 5.18813 16.5378C5.43662 16.7899 5.77364 16.9316 6.12505 16.9316Z" fill="white" stroke="white" stroke-width="1.00102"/>
</svg>
