<svg width="31" height="30" viewBox="0 0 31 30" fill="none" xmlns="http://www.w3.org/2000/svg">
<path d="M8.9499 6.25007C7.51329 6.24914 6.12021 6.74314 5.00514 7.64893C3.89007 8.55472 3.12108 9.817 2.82761 11.2233C2.53414 12.6296 2.7341 14.0941 3.39384 15.3703C4.05358 16.6464 5.13281 17.6564 6.4499 18.2301V21.5626H23.9499V18.2301C25.339 17.6239 26.4606 16.5337 27.1059 15.1623C27.7512 13.7909 27.8764 12.2318 27.458 10.775C27.0396 9.31828 26.1062 8.06314 24.8316 7.24318C23.5569 6.42322 22.0277 6.09428 20.5286 6.31757C20.1506 5.20422 19.4334 4.23722 18.4777 3.55238C17.5219 2.86755 16.3757 2.49927 15.1999 2.49927C14.0241 2.49927 12.8779 2.86755 11.9221 3.55238C10.9664 4.23722 10.2491 5.20422 9.87115 6.31757C9.56615 6.27238 9.25822 6.24982 8.9499 6.25007ZM23.9474 23.4376H6.4524C6.4649 25.1838 6.55365 26.1401 7.1824 26.7676C7.9149 27.5001 9.0924 27.5001 11.4499 27.5001H18.9499C21.3074 27.5001 22.4849 27.5001 23.2174 26.7676C23.8461 26.1401 23.9349 25.1838 23.9474 23.4376Z" fill="white"/>
</svg>
