<svg width="31" height="31" viewBox="0 0 31 31" fill="none" xmlns="http://www.w3.org/2000/svg">
<path d="M18.0404 21.3181L23.4017 12.7032C23.6503 12.3036 23.7876 11.8448 23.7992 11.3744C23.8109 10.9039 23.6965 10.4389 23.468 10.0275C23.2395 9.61612 22.9051 9.27334 22.4995 9.03467C22.0939 8.796 21.6319 8.67013 21.1613 8.67012H10.4388C9.9682 8.67013 9.50616 8.796 9.10058 9.03467C8.69499 9.27334 8.36061 9.61612 8.13208 10.0275C7.90355 10.4389 7.7892 10.9039 7.80086 11.3744C7.81252 11.8448 7.94978 12.3036 8.19842 12.7032L13.5597 21.319C13.7966 21.6997 14.1266 22.0137 14.5186 22.2315C14.9106 22.4492 15.3516 22.5635 15.8 22.5635C16.2485 22.5635 16.6895 22.4492 17.0815 22.2315C17.4735 22.0137 17.8035 21.6988 18.0404 21.3181Z" fill="white"/>
</svg>
