<svg width="30" height="31" viewBox="0 0 30 31" fill="none" xmlns="http://www.w3.org/2000/svg">
<path fill-rule="evenodd" clip-rule="evenodd" d="M8.925 3.01237C6.52875 3.01237 4.49063 3.873 3.06188 5.44237C1.64625 6.99487 0.9375 9.12112 0.9375 11.4742C0.9375 15.5617 3.01875 18.8186 5.6625 21.3517C8.295 23.8736 11.6062 25.7917 14.3475 27.2261C14.5478 27.3312 14.7705 27.3864 14.9967 27.3871C15.2229 27.3877 15.446 27.3338 15.6469 27.2299C18.39 25.8105 21.6994 23.8774 24.3337 21.3424C26.9775 18.8017 29.0625 15.5336 29.0625 11.4742C29.0625 9.11175 28.35 6.98737 26.9325 5.43487C25.5019 3.86925 23.4637 3.0105 21.075 3.0105C19.0575 3.0105 17.3888 3.75862 16.1194 5.16862C15.6855 5.65723 15.3099 6.19458 15 6.76987C14.6901 6.19458 14.3145 5.65723 13.8806 5.16862C12.6112 3.75862 10.9425 3.01237 8.925 3.01237Z" fill="white"/>
</svg>
