<svg width="31" height="31" viewBox="0 0 31 31" fill="none" xmlns="http://www.w3.org/2000/svg">
<path fill-rule="evenodd" clip-rule="evenodd" d="M22.7538 2.8999C23.1053 2.89988 23.4529 2.97399 23.7738 3.11739C24.0948 3.26079 24.3819 3.47026 24.6164 3.73213C24.8509 3.994 25.0275 4.30238 25.1348 4.63714C25.242 4.9719 25.2775 5.32551 25.2388 5.6749L23.0163 25.6749C22.9486 26.2866 22.6576 26.8519 22.1991 27.2624C21.7406 27.673 21.1467 27.8999 20.5313 27.8999H10.2688C9.65333 27.8999 9.05949 27.673 8.60097 27.2624C8.14245 26.8519 7.85148 26.2866 7.78378 25.6749L5.56253 5.6749C5.52388 5.32562 5.55929 4.97211 5.66647 4.63744C5.77365 4.30276 5.95018 3.99445 6.18455 3.7326C6.41891 3.47075 6.70585 3.26125 7.02664 3.11777C7.34743 2.97429 7.69487 2.90005 8.04628 2.8999H22.7538ZM16.65 19.1499C16.3185 19.1499 16.0006 19.2816 15.7662 19.516C15.5317 19.7504 15.4 20.0684 15.4 20.3999C15.4 20.7314 15.5317 21.0494 15.7662 21.2838C16.0006 21.5182 16.3185 21.6499 16.65 21.6499C16.9816 21.6499 17.2995 21.5182 17.5339 21.2838C17.7683 21.0494 17.9 20.7314 17.9 20.3999C17.9 20.0684 17.7683 19.7504 17.5339 19.516C17.2995 19.2816 16.9816 19.1499 16.65 19.1499ZM12.9 15.3999C12.5685 15.3999 12.2506 15.5316 12.0162 15.766C11.7817 16.0004 11.65 16.3184 11.65 16.6499C11.65 16.9814 11.7817 17.2994 12.0162 17.5338C12.2506 17.7682 12.5685 17.8999 12.9 17.8999C13.2316 17.8999 13.5495 17.7682 13.7839 17.5338C14.0183 17.2994 14.15 16.9814 14.15 16.6499C14.15 16.3184 14.0183 16.0004 13.7839 15.766C13.5495 15.5316 13.2316 15.3999 12.9 15.3999ZM22.7538 5.3999H8.04628L8.57753 10.1787L8.81128 10.1374C9.13628 10.0824 9.51253 10.0374 9.93628 10.0124C11.3463 9.92865 13.265 10.0837 15.4738 10.9537L15.8925 11.1262C17.7575 11.9262 19.3488 12.0912 20.4938 12.0524L22.0238 11.9674L22.7538 5.3999Z" fill="white"/>
</svg>
