<svg width="31" height="31" viewBox="0 0 31 31" fill="none" xmlns="http://www.w3.org/2000/svg">
<path d="M25.6001 12.8998C26.2631 12.8998 26.899 13.1632 27.3679 13.6321C27.8367 14.1009 28.1001 14.7368 28.1001 15.3998V16.0248C28.1001 18.1423 25.2913 22.8873 23.1213 24.7536L23.1001 24.7698V25.3998C23.1003 26.0305 22.8621 26.638 22.4332 27.1005C22.0044 27.563 21.4165 27.8463 20.7876 27.8936L20.6001 27.8998H10.6001C9.93706 27.8998 9.30117 27.6364 8.83233 27.1676C8.36349 26.6988 8.1001 26.0629 8.1001 25.3998V24.7798L8.01885 24.7136C5.81885 22.8436 3.27635 18.5073 3.10885 16.2511L3.1001 16.0248V15.3998C3.1001 14.7368 3.36349 14.1009 3.83233 13.6321C4.30117 13.1632 4.93706 12.8998 5.6001 12.8998H25.6001ZM14.8713 4.38483C15.0043 4.28367 15.1562 4.21019 15.318 4.16874C15.4799 4.12728 15.6484 4.11868 15.8136 4.14346C15.9788 4.16824 16.1374 4.22588 16.28 4.31299C16.4225 4.4001 16.5462 4.5149 16.6436 4.65061C16.741 4.78632 16.8103 4.94018 16.8472 5.10311C16.8842 5.26604 16.8881 5.43472 16.8588 5.59919C16.8294 5.76366 16.7674 5.92058 16.6764 6.06067C16.5854 6.20076 16.4672 6.32119 16.3288 6.41483C15.8601 6.75233 15.5876 7.29733 15.6001 7.92608C15.594 8.21012 15.6572 8.49137 15.7842 8.74552C15.9112 8.99968 16.0981 9.2191 16.3288 9.38483C16.4672 9.47847 16.5854 9.5989 16.6764 9.73899C16.7674 9.87908 16.8294 10.036 16.8588 10.2005C16.8881 10.3649 16.8842 10.5336 16.8472 10.6965C16.8103 10.8595 16.741 11.0133 16.6436 11.149C16.5462 11.2848 16.4225 11.3996 16.28 11.4867C16.1374 11.5738 15.9788 11.6314 15.8136 11.6562C15.6484 11.681 15.4799 11.6724 15.318 11.6309C15.1562 11.5895 15.0043 11.516 14.8713 11.4148C14.3167 11.0192 13.866 10.4953 13.5575 9.88785C13.2491 9.28037 13.0922 8.60732 13.1001 7.92608C13.0858 7.23638 13.2395 6.55356 13.5481 5.93658C13.8567 5.31961 14.3109 4.78702 14.8713 4.38483ZM19.8713 4.38483C20.0043 4.28367 20.1562 4.21019 20.318 4.16874C20.4799 4.12728 20.6484 4.11868 20.8136 4.14346C20.9788 4.16824 21.1374 4.22588 21.28 4.31299C21.4225 4.4001 21.5462 4.5149 21.6436 4.65061C21.741 4.78632 21.8103 4.94018 21.8472 5.10311C21.8842 5.26604 21.8881 5.43472 21.8588 5.59919C21.8294 5.76366 21.7674 5.92058 21.6764 6.06067C21.5854 6.20076 21.4672 6.32119 21.3288 6.41483C20.8601 6.75233 20.5876 7.29733 20.6001 7.92608C20.594 8.21012 20.6572 8.49137 20.7842 8.74552C20.9112 8.99968 21.0981 9.2191 21.3288 9.38483C21.4672 9.47847 21.5854 9.5989 21.6764 9.73899C21.7674 9.87908 21.8294 10.036 21.8588 10.2005C21.8881 10.3649 21.8842 10.5336 21.8472 10.6965C21.8103 10.8595 21.741 11.0133 21.6436 11.149C21.5462 11.2848 21.4225 11.3996 21.28 11.4867C21.1374 11.5738 20.9788 11.6314 20.8136 11.6562C20.6484 11.681 20.4799 11.6724 20.318 11.6309C20.1562 11.5895 20.0043 11.516 19.8713 11.4148C19.3167 11.0192 18.866 10.4953 18.5575 9.88785C18.2491 9.28037 18.0922 8.60732 18.1001 7.92608C18.0858 7.23638 18.2395 6.55356 18.5481 5.93658C18.8567 5.31961 19.3109 4.78702 19.8713 4.38483ZM9.87135 4.38483C10.0043 4.28367 10.1562 4.21019 10.318 4.16874C10.4799 4.12728 10.6484 4.11868 10.8136 4.14346C10.9788 4.16824 11.1374 4.22588 11.28 4.31299C11.4225 4.4001 11.5462 4.5149 11.6436 4.65061C11.741 4.78632 11.8103 4.94018 11.8472 5.10311C11.8842 5.26604 11.8881 5.43472 11.8588 5.59919C11.8294 5.76366 11.7674 5.92058 11.6764 6.06067C11.5854 6.20076 11.4672 6.32119 11.3288 6.41483C10.8601 6.75233 10.5876 7.29733 10.6001 7.92608C10.594 8.21012 10.6572 8.49137 10.7842 8.74552C10.9112 8.99968 11.0981 9.2191 11.3288 9.38483C11.4672 9.47847 11.5854 9.5989 11.6764 9.73899C11.7674 9.87908 11.8294 10.036 11.8588 10.2005C11.8881 10.3649 11.8842 10.5336 11.8472 10.6965C11.8103 10.8595 11.741 11.0133 11.6436 11.149C11.5462 11.2848 11.4225 11.3996 11.28 11.4867C11.1374 11.5738 10.9788 11.6314 10.8136 11.6562C10.6484 11.681 10.4799 11.6724 10.318 11.6309C10.1562 11.5895 10.0043 11.516 9.87135 11.4148C9.3167 11.0192 8.86595 10.4953 8.55754 9.88785C8.24912 9.28037 8.09218 8.60732 8.1001 7.92608C8.08576 7.23638 8.23954 6.55356 8.54813 5.93658C8.85673 5.31961 9.31087 4.78702 9.87135 4.38483Z" fill="white"/>
</svg>
