<svg width="31" height="31" viewBox="0 0 31 31" fill="none" xmlns="http://www.w3.org/2000/svg">
<path d="M7.03883 4.67486C6.98576 5.56192 7.11586 6.45041 7.42101 7.28501C7.72617 8.11962 8.19985 8.88248 8.81258 9.52611C7.62178 9.86753 6.55566 10.5472 5.74357 11.4827C4.93148 12.4181 4.40832 13.5692 4.23758 14.7961C3.82585 17.7405 4.42989 20.7373 5.95008 23.2924L6.38758 24.0299L6.44133 24.1086L8.21133 26.4911C8.58623 26.9961 9.06668 27.4132 9.61924 27.7136C10.1718 28.0139 10.7832 28.1902 11.4108 28.2302C12.0384 28.2702 12.6673 28.1729 13.2534 27.9451C13.8396 27.7173 14.3691 27.3644 14.8051 26.9111C14.8561 26.8581 14.9172 26.8159 14.9849 26.7871C15.0525 26.7583 15.1253 26.7435 15.1988 26.7435C15.2724 26.7435 15.3451 26.7583 15.4128 26.7871C15.4805 26.8159 15.5416 26.8581 15.5926 26.9111C16.0285 27.3644 16.558 27.7173 17.1442 27.9451C17.7304 28.1729 18.3592 28.2702 18.9869 28.2302C19.6145 28.1902 20.2259 28.0139 20.7784 27.7136C21.331 27.4132 21.8114 26.9961 22.1863 26.4911L23.9563 24.1074L24.0088 24.0286L24.4476 23.2911C25.9685 20.7373 26.5739 17.7414 26.1638 14.7974C26.0428 13.9299 25.745 13.0965 25.2889 12.3487C24.8327 11.601 24.228 10.9548 23.512 10.4503C22.7961 9.94571 21.9842 9.59347 21.1266 9.41537C20.269 9.23727 19.384 9.2371 18.5263 9.41486L16.1501 9.90736H16.1463C16.1838 8.93236 16.3363 7.88236 16.6351 6.98486C16.9976 5.89986 17.5001 5.24736 18.0601 5.01486C18.2897 4.91905 18.4718 4.73597 18.5664 4.50588C18.661 4.2758 18.6603 4.01756 18.5645 3.78798C18.4686 3.55841 18.2856 3.37629 18.0555 3.2817C17.8254 3.18711 17.5672 3.1878 17.3376 3.28361C16.0226 3.83236 15.2751 5.13361 14.8563 6.39111L14.7988 6.56861C14.4913 5.97359 14.0937 5.42967 13.6201 4.95611C12.9719 4.30704 12.1931 3.80311 11.3354 3.47771C10.4777 3.15231 9.56072 3.01286 8.64508 3.06861C8.22722 3.09266 7.83272 3.26924 7.53642 3.56486C7.24011 3.86047 7.06261 4.25456 7.03758 4.67236M10.6951 14.4411C10.2613 14.5274 9.86383 14.8324 9.61508 15.4136C9.36133 16.0061 9.27133 16.8849 9.54508 17.9811C9.60136 18.2209 9.56103 18.4731 9.43283 18.6834C9.30462 18.8937 9.09882 19.045 8.85991 19.1048C8.621 19.1646 8.36817 19.1279 8.15606 19.0028C7.94394 18.8777 7.78958 18.6741 7.72633 18.4361C7.37633 17.0336 7.44258 15.7236 7.89133 14.6749C8.34508 13.6161 9.19758 12.8274 10.3276 12.6024C10.45 12.5735 10.5771 12.5695 10.7011 12.5907C10.8251 12.6119 10.9436 12.6579 11.0495 12.7259C11.1554 12.7939 11.2465 12.8825 11.3174 12.9864C11.3883 13.0904 11.4376 13.2075 11.4623 13.3309C11.4869 13.4543 11.4865 13.5814 11.461 13.7046C11.4356 13.8278 11.3855 13.9447 11.3139 14.0482C11.2424 14.1516 11.1507 14.2396 11.0443 14.3069C10.938 14.3742 10.8192 14.4207 10.6951 14.4411Z" fill="white"/>
</svg>
