<svg width="31" height="30" viewBox="0 0 31 30" fill="none" xmlns="http://www.w3.org/2000/svg">
<path fill-rule="evenodd" clip-rule="evenodd" d="M4.6001 9.25C4.6001 8.91848 4.73179 8.60054 4.96621 8.36612C5.20063 8.1317 5.51858 8 5.8501 8H25.8501C26.1816 8 26.4996 8.1317 26.734 8.36612C26.9684 8.60054 27.1001 8.91848 27.1001 9.25C27.1001 9.58152 26.9684 9.89946 26.734 10.1339C26.4996 10.3683 26.1816 10.5 25.8501 10.5H5.8501C5.51858 10.5 5.20063 10.3683 4.96621 10.1339C4.73179 9.89946 4.6001 9.58152 4.6001 9.25ZM7.1001 14.875C7.1001 14.5435 7.23179 14.2255 7.46621 13.9911C7.70063 13.7567 8.01858 13.625 8.3501 13.625H23.3501C23.6816 13.625 23.9996 13.7567 24.234 13.9911C24.4684 14.2255 24.6001 14.5435 24.6001 14.875C24.6001 15.2065 24.4684 15.5245 24.234 15.7589C23.9996 15.9933 23.6816 16.125 23.3501 16.125H8.3501C8.01858 16.125 7.70063 15.9933 7.46621 15.7589C7.23179 15.5245 7.1001 15.2065 7.1001 14.875ZM10.8501 20.5C10.8501 20.1685 10.9818 19.8505 11.2162 19.6161C11.4506 19.3817 11.7686 19.25 12.1001 19.25H19.6001C19.9316 19.25 20.2496 19.3817 20.484 19.6161C20.7184 19.8505 20.8501 20.1685 20.8501 20.5C20.8501 20.8315 20.7184 21.1495 20.484 21.3839C20.2496 21.6183 19.9316 21.75 19.6001 21.75H12.1001C11.7686 21.75 11.4506 21.6183 11.2162 21.3839C10.9818 21.1495 10.8501 20.8315 10.8501 20.5Z" fill="white"/>
</svg>
