<svg width="31" height="31" viewBox="0 0 31 31" fill="none" xmlns="http://www.w3.org/2000/svg">
<path d="M22.3625 15.8C23.1085 15.8 23.8238 16.0964 24.3513 16.6238C24.8787 17.1513 25.175 17.8666 25.175 18.6125V19.55C25.175 23.2457 21.6875 27.05 15.8 27.05C9.91255 27.05 6.42505 23.2457 6.42505 19.55V18.6125C6.42505 17.8666 6.72137 17.1513 7.24881 16.6238C7.77626 16.0964 8.49163 15.8 9.23755 15.8H22.3625ZM15.8 3.61255C17.1676 3.61255 18.4791 4.1558 19.4461 5.12278C20.4131 6.08976 20.9563 7.40128 20.9563 8.7688C20.9563 10.1363 20.4131 11.4478 19.4461 12.4148C18.4791 13.3818 17.1676 13.925 15.8 13.925C14.4325 13.925 13.121 13.3818 12.154 12.4148C11.187 11.4478 10.6438 10.1363 10.6438 8.7688C10.6438 7.40128 11.187 6.08976 12.154 5.12278C13.121 4.1558 14.4325 3.61255 15.8 3.61255Z" fill="white"/>
</svg>
