<svg width="31" height="30" viewBox="0 0 31 30" fill="none" xmlns="http://www.w3.org/2000/svg">
<path fill-rule="evenodd" clip-rule="evenodd" d="M15.3999 29.0625C13.3312 29.0625 11.5668 29.02 10.0874 28.9569V1.04373C11.8573 0.970885 13.6285 0.935669 15.3999 0.938107C19.4062 0.938107 22.2693 1.09686 24.1349 1.25686C26.1955 1.43311 27.7543 3.04311 27.9049 5.09123C28.0549 7.13311 28.2124 10.3756 28.2124 15.0006C28.2124 19.6256 28.0549 22.8681 27.9049 24.91C27.7549 26.9581 26.1955 28.5681 24.1349 28.7444C22.2693 28.9044 19.4055 29.0625 15.3999 29.0625ZM12.8999 7.49998C12.8999 7.16846 13.0316 6.85052 13.266 6.6161C13.5004 6.38168 13.8184 6.24998 14.1499 6.24998H21.6499C21.9814 6.24998 22.2994 6.38168 22.5338 6.6161C22.7682 6.85052 22.8999 7.16846 22.8999 7.49998C22.8999 7.8315 22.7682 8.14944 22.5338 8.38386C22.2994 8.61829 21.9814 8.74998 21.6499 8.74998H14.1499C13.8184 8.74998 13.5004 8.61829 13.266 8.38386C13.0316 8.14944 12.8999 7.8315 12.8999 7.49998ZM14.1499 11.875C13.8184 11.875 13.5004 12.0067 13.266 12.2411C13.0316 12.4755 12.8999 12.7935 12.8999 13.125C12.8999 13.4565 13.0316 13.7744 13.266 14.0089C13.5004 14.2433 13.8184 14.375 14.1499 14.375H17.8999C18.2314 14.375 18.5494 14.2433 18.7838 14.0089C19.0182 13.7744 19.1499 13.4565 19.1499 13.125C19.1499 12.7935 19.0182 12.4755 18.7838 12.2411C18.5494 12.0067 18.2314 11.875 17.8999 11.875H14.1499ZM6.6649 1.25623C7.12032 1.21665 7.63615 1.17852 8.2124 1.14186V28.8587C7.69616 28.8261 7.1803 28.7877 6.6649 28.7437C4.60428 28.5675 3.04553 26.9575 2.8949 24.9094C2.7449 22.8675 2.5874 19.625 2.5874 15C2.5874 10.375 2.7449 7.13248 2.8949 5.09061C3.0449 3.04311 4.60428 1.43248 6.6649 1.25623Z" fill="white"/>
</svg>
